HIERARCHY
ROOT Hips
{
 OFFSET 0.000000 0.000000 0.000000
 CHANNELS 6 Xposition Yposition Zposition Yrotation Xrotation Zrotation
 JOINT Chest
 {
  OFFSET 0.000000 9.585900 0.002600
  CHANNELS 3 Yrotation Xrotation Zrotation
  JOINT Chest2
  {
   OFFSET 0.000000 9.601200 -0.005300
   CHANNELS 3 Yrotation Xrotation Zrotation
   JOINT Chest3
   {
    OFFSET 0.000000 9.561800 0.000000
    CHANNELS 3 Yrotation Xrotation Zrotation
    JOINT Chest4
    {
     OFFSET 0.000000 9.552100 0.000000
     CHANNELS 3 Yrotation Xrotation Zrotation
     JOINT Neck
     {
      OFFSET 0.000000 14.453000 0.000000
      CHANNELS 3 Yrotation Xrotation Zrotation
      JOINT Head
      {
       OFFSET 0.000000 8.936500 -0.011300
       CHANNELS 3 Yrotation Xrotation Zrotation
       End Site
       {
        OFFSET 0.000000 17.073600 -0.006000
       }
      }
     }
     JOINT RightCollar
     {
      OFFSET -2.921100 9.558500 0.000000
      CHANNELS 3 Yrotation Xrotation Zrotation
      JOINT RightShoulder
      {
       OFFSET -13.519700 0.000000 0.000000
       CHANNELS 3 Yrotation Xrotation Zrotation
       JOINT RightElbow
       {
        OFFSET 0.000000 -29.696600 0.000000
        CHANNELS 3 Yrotation Xrotation Zrotation
        JOINT RightWrist
        {
         OFFSET 0.000000 -24.004700 0.000000
         CHANNELS 3 Yrotation Xrotation Zrotation
         End Site
         {
          OFFSET 0.000000 -17.728500 0.000000
         }
        }
       }
      }
     }
     JOINT LeftCollar
     {
      OFFSET 2.921100 9.558500 0.000000
      CHANNELS 3 Yrotation Xrotation Zrotation
      JOINT LeftShoulder
      {
       OFFSET 13.519700 0.000000 0.000000
       CHANNELS 3 Yrotation Xrotation Zrotation
       JOINT LeftElbow
       {
        OFFSET 0.000000 -29.696600 0.000000
        CHANNELS 3 Yrotation Xrotation Zrotation
        JOINT LeftWrist
        {
         OFFSET 0.000000 -24.004700 0.000000
         CHANNELS 3 Yrotation Xrotation Zrotation
         End Site
         {
          OFFSET 0.000000 -17.728500 0.000000
         }
        }
       }
      }
     }
    }
   }
  }
 }
 JOINT RightHip
 {
  OFFSET -7.771700 -0.012900 -0.001300
  CHANNELS 3 Yrotation Xrotation Zrotation
  JOINT RightKnee
  {
   OFFSET 0.000000 -40.869800 0.001200
   CHANNELS 3 Yrotation Xrotation Zrotation
   JOINT RightAnkle
   {
    OFFSET 0.000000 -39.717900 0.002100
    CHANNELS 3 Yrotation Xrotation Zrotation
    JOINT RightToe
    {
     OFFSET 0.000000 -4.965400 11.033500
     CHANNELS 3 Yrotation Xrotation Zrotation
     End Site
     {
      OFFSET 0.000000 -1.423100 5.872300
     }
    }
   }
  }
 }
 JOINT LeftHip
 {
  OFFSET 7.771700 -0.012900 -0.001300
  CHANNELS 3 Yrotation Xrotation Zrotation
  JOINT LeftKnee
  {
   OFFSET 0.000000 -40.869800 0.001200
   CHANNELS 3 Yrotation Xrotation Zrotation
   JOINT LeftAnkle
   {
    OFFSET 0.000000 -39.717900 0.002100
    CHANNELS 3 Yrotation Xrotation Zrotation
    JOINT LeftToe
    {
     OFFSET 0.000000 -4.965400 11.033500
     CHANNELS 3 Yrotation Xrotation Zrotation
     End Site
     {
      OFFSET 0.000000 -1.423100 5.872300
     }
    }
   }
  }
 }
}
MOTION
Frames: 16
Frame Time: 0.008333
0.000000 85.388000 0.000000 0.000000 -5.767877 0.000000 0.000000 11.653817 0.000000 0.000000 -5.885947 0.000000 0.000000 -0.000000 0.000000 0.000000 -0.000000 0.000000 0.000000 12.528835 0.000000 0.000000 0.711642 0.000000 0.000000 -0.000000 0.000000 0.000000 0.000000 -90.000000 0.000000 -2.309062 0.000000 0.000000 2.309062 0.000000 0.000000 -0.000000 0.000000 0.000000 -0.000000 90.000000 0.000000 -2.309062 0.000000 0.000000 2.309062 0.000000 0.000000 8.520406 0.000000 0.000000 1.905762 0.000000 -0.000000 -4.658285 0.000000 0.000000 -0.000000 0.000000 0.000000 8.520406 0.000000 0.000000 1.905762 0.000000 -0.000000 -4.658285 0.000000 0.000000 -0.000000 0.000000
-130.144692 58.066579 107.499904 176.648786 -26.915108 -0.492139 1.305700 18.321351 2.116120 0.181687 2.089761 0.234283 0.258803 3.487030 0.371716 1.410263 16.019985 1.882721 -0.566260 14.822818 -1.559628 -0.436561 -8.312956 -2.707119 3.786628 -2.593995 -0.042406 12.792747 -17.435470 -19.207767 151.956107 -79.509064 -111.759387 9.926250 -9.100756 -31.397012 -7.599109 -3.090315 -5.027275 -6.617011 -17.430930 2.790539 35.288199 -24.590579 -73.944526 9.304715 -11.735890 29.322373 -3.923310 -49.561754 1.000368 -15.236540 66.325302 -19.515037 11.436026 29.382273 3.158815 -0.053057 -20.872671 1.713911 -3.683752 -45.751606 -0.733890 24.090725 66.479978 21.997254 -17.346984 3.284524 -0.755639 -0.213795 -0.212448 -0.088913
-130.141831 58.069826 107.501847 176.615430 -26.898465 -0.473572 1.319912 18.314358 2.101839 0.168907 2.100625 0.228352 0.232796 3.510507 0.360197 1.450955 16.003268 1.891021 -0.562138 14.810150 -1.548253 -0.474198 -8.298180 -2.665373 3.769870 -2.594320 -0.035337 12.817636 -17.444906 -19.213364 152.015068 -79.510910 -111.813679 9.869847 -9.045832 -31.370722 -7.610631 -3.089217 -5.020773 -6.633034 -17.409875 2.794064 35.301290 -24.559504 -73.950575 9.331308 -11.746532 29.329471 -3.915070 -49.572028 1.001135 -15.202482 66.321964 -19.475335 11.427893 29.343013 3.178669 -0.053261 -20.830864 1.675850 -3.724115 -45.771735 -0.711984 24.186028 66.473148 22.061930 -17.321479 3.289615 -0.754334 -0.239831 -0.229734 -0.104154
-130.130265 58.072577 107.505951 176.540323 -26.868671 -0.488844 1.388688 18.292685 2.142670 0.155579 2.111132 0.222461 0.245998 3.501059 0.365125 1.441307 16.018453 1.884738 -0.552229 14.798565 -1.538194 -0.510655 -8.288343 -2.627613 3.769606 -2.598892 -0.030919 12.832785 -17.449627 -19.216617 152.026989 -79.551852 -111.827077 9.850809 -9.014997 -31.340504 -7.622005 -3.089753 -5.017340 -6.629686 -17.407477 2.801122 35.314920 -24.549524 -73.953281 9.360756 -11.734232 29.329258 -3.933621 -49.592157 1.084622 -15.222725 66.304136 -19.470355 11.416726 29.314556 3.206828 -0.013329 -20.789908 1.597736 -3.726646 -45.800616 -0.641265 24.141463 66.486354 22.058478 -17.322615 3.264691 -0.808711 -0.208567 -0.224192 -0.092130
-130.123627 58.076391 107.507292 176.507025 -26.851335 -0.494561 1.357923 18.314650 2.122857 0.189548 2.092655 0.230041 0.262644 3.491801 0.370435 1.427103 16.029274 1.877396 -0.558065 14.799505 -1.524323 -0.523018 -8.291404 -2.603800 3.791858 -2.611912 -0.027817 12.790521 -17.410952 -19.211264 152.074464 -79.564054 -111.864473 9.812714 -8.970453 -31.285098 -7.632965 -3.087836 -5.015603 -6.617735 -17.412711 2.811148 35.321925 -24.532280 -73.953674 9.358055 -11.741668 29.328967 -3.984005 -49.602788 1.136037 -15.231271 66.290271 -19.468894 11.440501 29.313710 3.210782 -0.006269 -20.781045 1.557996 -3.736387 -45.818267 -0.610339 24.131219 66.487766 22.066749 -17.330405 3.261107 -0.837815 -0.189919 -0.227044 -0.088004
-130.118025 58.079479 107.509037 176.470680 -26.826366 -0.496195 1.360557 18.310678 2.122293 0.173709 2.100970 0.225426 0.244753 3.502795 0.366380 1.435220 16.025258 1.874370 -0.562780 14.797921 -1.507246 -0.502305 -8.307992 -2.602589 3.820399 -2.619055 -0.032992 12.800038 -17.416252 -19.217980 152.065324 -79.553305 -111.855717 9.790905 -8.959853 -31.265044 -7.613959 -3.103189 -5.019172 -6.668904 -17.376205 2.821455 35.373689 -24.534297 -73.958990 9.337743 -11.775666 29.331076 -4.023903 -49.620247 1.181714 -15.335375 66.256039 -19.552505 11.499371 29.328276 3.216552 -0.014284 -20.781306 1.522656 -3.753925 -45.842820 -0.583008 24.162442 66.481474 22.106636 -17.321471 3.257715 -0.858560 -0.198662 -0.228441 -0.089543
-130.113656 58.083268 107.507785 176.403554 -26.815982 -0.479439 1.389212 18.323232 2.117123 0.164266 2.105431 0.223216 0.252875 3.496875 0.367589 1.422101 16.028889 1.870882 -0.523486 14.779472 -1.509987 -0.538028 -8.292516 -2.570363 3.831658 -2.617828 -0.032830 12.822852 -17.423840 -19.230994 152.013754 -79.536067 -111.809876 9.771452 -8.955169 -31.256956 -7.609370 -3.110262 -5.025318 -6.695961 -17.358941 2.832082 35.354039 -24.494524 -73.951567 9.316175 -11.836960 29.336577 -4.023325 -49.624104 1.218893 -15.326115 66.242315 -19.548057 11.581944 29.341553 3.274479 -0.059902 -20.790460 1.480435 -3.739593 -45.853591 -0.561195 24.215000 66.473488 22.152828 -17.332791 3.243113 -0.874500 -0.191439 -0.215859 -0.084394
-130.108105 58.085507 107.507816 176.364796 -26.791948 -0.486832 1.413960 18.310617 2.133027 0.136908 2.122301 0.217298 0.260138 3.490179 0.368835 1.414652 16.027111 1.868477 -0.520479 14.778747 -1.504113 -0.517775 -8.300174 -2.574362 3.839280 -2.613562 -0.033823 12.857339 -17.439848 -19.241594 151.892430 -79.517800 -111.703212 9.751927 -8.957000 -31.255698 -7.610743 -3.113795 -5.031682 -6.696837 -17.356985 2.842913 35.351200 -24.490813 -73.945697 9.344240 -11.824679 29.342184 -4.056505 -49.641680 1.271302 -15.430860 66.210443 -19.629797 11.638313 29.366149 3.257034 -0.057443 -20.801628 1.466907 -3.760313 -45.875986 -0.527611 24.229924 66.472636 22.187989 -17.327683 3.229685 -0.903580 -0.179000 -0.211977 -0.085227
-130.101954 58.088550 107.504187 176.330135 -26.787398 -0.501395 1.436886 18.317434 2.154702 0.127251 2.128075 0.216179 0.268415 3.483785 0.369923 1.410328 16.026317 1.867295 -0.572774 14.805684 -1.483929 -0.461224 -8.326529 -2.598854 3.806800 -2.590689 -0.024510 12.900382 -17.453213 -19.260628 151.863163 -79.487747 -111.678636 9.735227 -8.961814 -31.255333 -7.633764 -3.108436 -5.034311 -6.668291 -17.368898 2.849723 35.314318 -24.480350 -73.937056 9.346374 -11.860222 29.349285 -4.079788 -49.639838 1.325386 -15.434662 66.196451 -19.627337 11.629315 29.410722 3.298580 -0.062920 -20.834978 1.414915 -3.788301 -45.877023 -0.495548 24.210446 66.481659 22.208766 -17.302278 3.197840 -0.950369 -0.167448 -0.199099 -0.080052
-130.101440 58.089112 107.502823 176.300301 -26.760371 -0.487526 1.427027 18.315821 2.136050 0.153391 2.109633 0.220709 0.258212 3.489001 0.368469 1.365503 16.040238 1.862835 -0.556945 14.803768 -1.482441 -0.454775 -8.322016 -2.589539 3.853591 -2.602622 -0.033346 12.864993 -17.431563 -19.269054 152.062395 -79.449666 -111.848279 9.729282 -8.963844 -31.255168 -7.616743 -3.117624 -5.041651 -6.689402 -17.367292 2.855556 35.319608 -24.493244 -73.926175 9.352728 -11.895604 29.363448 -4.055274 -49.666695 1.321094 -15.423616 66.191154 -19.604629 11.626326 29.440338 3.313479 -0.065329 -20.856428 1.392759 -3.780705 -45.903028 -0.507015 24.263382 66.472914 22.264451 -17.274925 3.192913 -0.946750 -0.188549 -0.195539 -0.089545
-130.101644 58.088598 107.501384 176.271407 -26.729348 -0.470832 1.410452 18.310997 2.112838 0.151999 2.108762 0.220406 0.255931 3.487610 0.367792 1.344787 16.041795 1.859781 -0.508535 14.787160 -1.492369 -0.523818 -8.272861 -2.541099 3.890452 -2.604146 -0.041250 12.866254 -17.433575 -19.277751 152.002904 -79.406069 -111.786921 9.712773 -8.977130 -31.266560 -7.576091 -3.133376 -5.050499 -6.736447 -17.361012 2.867752 35.342856 -24.503035 -73.923000 9.362845 -11.900108 29.381015 -3.988892 -49.705313 1.281582 -15.432450 66.197941 -19.581876 11.643140 29.465627 3.332358 -0.070674 -20.879785 1.375387 -3.789246 -45.938832 -0.531852 24.326242 66.466077 22.351784 -17.232434 3.189729 -0.971850 -0.194352 -0.198493 -0.094873
-130.096321 58.088680 107.497204 176.244935 -26.715504 -0.487127 1.379111 18.340184 2.114066 0.178508 2.090480 0.224805 0.253463 3.486086 0.367490 1.346001 16.033506 1.856134 -0.517490 14.795606 -1.486103 -0.520983 -8.265708 -2.545135 3.873527 -2.582279 -0.041939 12.894812 -17.449491 -19.288429 151.858910 -79.347201 -111.660607 9.695860 -9.009328 -31.274148 -7.561622 -3.139378 -5.054614 -6.784425 -17.358732 2.878531 35.353531 -24.509631 -73.905106 9.366439 -11.891015 29.426555 -3.992779 -49.717074 1.321476 -15.428660 66.198964 -19.570527 11.657654 29.480839 3.344786 -0.078962 -20.895528 1.366045 -3.807961 -45.953765 -0.511039 24.302991 66.475400 22.385014 -17.227264 3.165313 -1.032778 -0.160603 -0.189982 -0.081473
-130.091137 58.088055 107.492640 176.216215 -26.700870 -0.500507 1.375261 18.349311 2.123565 0.176656 2.088782 0.223610 0.251786 3.484469 0.367054 1.375443 16.018102 1.857912 -0.595232 14.831979 -1.471380 -0.474943 -8.277927 -2.568628 3.877889 -2.580976 -0.043430 12.881326 -17.442927 -19.288584 151.855273 -79.320252 -111.657083 9.701802 -9.026992 -31.280131 -7.592727 -3.129678 -5.054872 -6.852936 -17.359319 2.904972 35.404532 -24.518685 -73.886485 9.373431 -11.907870 29.455271 -3.973626 -49.731209 1.343919 -15.381325 66.205290 -19.504252 11.630473 29.515458 3.360963 -0.083732 -20.925199 1.346352 -3.815931 -45.969075 -0.483953 24.289665 66.485645 22.408705 -17.237628 3.144794 -1.071244 -0.137222 -0.181635 -0.072398
-130.088479 58.085983 107.489354 176.187569 -26.673283 -0.497731 1.394459 18.327591 2.129371 0.111159 2.127690 0.216727 0.257726 3.475516 0.366593 1.396114 15.999943 1.854250 -0.595864 14.835931 -1.472763 -0.452051 -8.283450 -2.580978 3.890810 -2.577484 -0.050241 12.910713 -17.456820 -19.294407 151.709248 -79.289694 -111.529345 9.676056 -9.053716 -31.272282 -7.588895 -3.136238 -5.064694 -6.887607 -17.366045 2.931230 35.461961 -24.521576 -73.880796 9.377260 -11.887410 29.487677 -3.945760 -49.763242 1.348641 -15.378300 66.213146 -19.487339 11.640515 29.536514 3.377003 -0.084244 -20.947423 1.330186 -3.807928 -45.998021 -0.476450 24.306301 66.488432 22.438846 -17.230557 3.139482 -1.081259 -0.132547 -0.179056 -0.070913
-130.086379 58.083337 107.486114 176.156885 -26.641763 -0.488643 1.385989 18.320879 2.119065 0.110464 2.126107 0.216983 0.246141 3.479162 0.365878 1.349530 16.008684 1.851063 -0.544726 14.818199 -1.492278 -0.478783 -8.266220 -2.581691 3.920734 -2.576004 -0.061567 12.952002 -17.468690 -19.311367 151.649048 -79.246490 -111.477212 9.649216 -9.080749 -31.260322 -7.596266 -3.144246 -5.082484 -6.822532 -17.398451 2.947025 35.390042 -24.491107 -73.844234 9.377588 -11.958932 29.501170 -3.915042 -49.802381 1.354095 -15.397589 66.221115 -19.497393 11.646027 29.557870 3.385818 -0.080687 -20.970121 1.319155 -3.802594 -46.031820 -0.477129 24.351002 66.488863 22.493403 -17.217056 3.129139 -1.090708 -0.147275 -0.167296 -0.069619
-130.082534 58.081140 107.481590 176.123819 -26.616057 -0.486039 1.364483 18.331141 2.110748 0.128683 2.115227 0.219205 0.244951 3.477801 0.365755 1.344346 16.006217 1.850065 -0.550785 14.817790 -1.498649 -0.499762 -8.260520 -2.588588 3.936353 -2.582460 -0.066090 12.925580 -17.457401 -19.319101 151.709106 -79.202732 -111.516757 9.651816 -9.091978 -31.273212 -7.579609 -3.158671 -5.092344 -6.830173 -17.405131 2.957767 35.343323 -24.460768 -73.818298 9.371008 -12.024795 29.502207 -3.898780 -49.832665 1.376344 -15.416547 66.226870 -19.512849 11.659718 29.574543 3.409026 -0.074933 -20.989646 1.295626 -3.805275 -46.058910 -0.466229 24.361652 66.496740 22.526534 -17.205577 3.112959 -1.117056 -0.143320 -0.162768 -0.066207
